<svg id="Layer_1" data-name="Layer 1" xmlns="http://www.w3.org/2000/svg" viewBox="0 0 161.72 185.5"><defs><style>.cls-1{fill:#f2f2f2;}.cls-2{fill:#d9d9d9;}</style></defs><title>All Logos_UW eScience Reproducible and Open Research</title><path class="cls-1" d="M161.72,48.37v88.76a4,4,0,0,1-2,3.46L82.86,185a4,4,0,0,1-4,0L2,140.59a4,4,0,0,1-2-3.46V48.37a4,4,0,0,1,2-3.46L78.86.54a4,4,0,0,1,4,0l76.86,44.37A4,4,0,0,1,161.72,48.37Z"/><path d="M66.45,154.31a5,5,0,0,1-5-5V133.93l-18-30.6a4.91,4.91,0,0,1-.7-2.48l-.61-44a5,5,0,0,1,10-.14l.59,42.64L70.78,130a5.05,5.05,0,0,1,.69,2.55v16.73A5,5,0,0,1,66.45,154.31Z"/><path class="cls-2" d="M98.07,154.31a5,5,0,0,1-5-5V132.56a5,5,0,0,1,1.31-3.38l19.22-21.1V71.3a5,5,0,1,1,10,0V110a5,5,0,0,1-1.31,3.39l-19.22,21.1v14.78A5,5,0,0,1,98.07,154.31Z"/><path d="M99.07,112.06,84.91,87.88V30.21a5,5,0,1,0-10,0v59a5,5,0,0,0,.69,2.54l14.84,25.36a5,5,0,0,0,8.68-5.08ZM86.36,123.87l-18-30.6V39.57a5,5,0,1,0-10,0V94.64A5.08,5.08,0,0,0,59,97.19l18,30.6v21.5a5,5,0,1,0,10,0V126.42A5.05,5.05,0,0,0,86.36,123.87Z"/><path d="M107.33,104.86a4.92,4.92,0,0,1-2.31.56,5,5,0,0,1-4.46-2.7l-8.5-16.35a5,5,0,0,1-.57-2.3v-.3l0-2.66V37.77a5,5,0,0,1,10,0V82.12a4.21,4.21,0,0,1,0,.72l7.92,15.25A5,5,0,0,1,107.33,104.86Z"/></svg>