<svg id="Layer_1" data-name="Layer 1" xmlns="http://www.w3.org/2000/svg" viewBox="0 0 404 129.13"><defs><style>.cls-1{fill:#d9d9d9;}</style></defs><title>UW eScience Reproducible and Open Research</title><path class="cls-1" d="M56,129.13a5,5,0,0,1-5-5V107.38A5.07,5.07,0,0,1,52.27,104L71.49,82.9V46.11a5,5,0,0,1,10.05,0V84.84a5,5,0,0,1-1.31,3.38L61,109.32v14.79A5,5,0,0,1,56,129.13Z"/><path d="M24.35,129.13a5,5,0,0,1-5-5V108.75l-18-30.6a4.94,4.94,0,0,1-.7-2.48L0,31.7a5,5,0,1,1,10.05-.14l.59,42.64,18,30.63a5,5,0,0,1,.7,2.55v16.73A5,5,0,0,1,24.35,129.13Z"/><path d="M57,86.87,42.82,62.69V5a5,5,0,1,0-10,0v59a5,5,0,0,0,.69,2.53L48.3,92A5,5,0,0,0,57,86.87ZM44.26,98.68l-18-30.6V14.38a5,5,0,0,0-10,0V69.45A5.05,5.05,0,0,0,16.88,72l18,30.6v21.51a5,5,0,0,0,10.05,0V101.23A5,5,0,0,0,44.26,98.68Z"/><path d="M65.24,79.67a4.93,4.93,0,0,1-2.31.57,5,5,0,0,1-4.46-2.71L50,61.19a5,5,0,0,1-.57-2.31v-.29l.05-2.66V12.58a5,5,0,0,1,10,0V56.93a4.4,4.4,0,0,1,0,.73L67.38,72.9A5,5,0,0,1,65.24,79.67Z"/><path d="M119.81,42.91v11.2A6.07,6.07,0,0,1,118,58.76a6.87,6.87,0,0,1-4.92,1.7,6.53,6.53,0,0,1-4.83-1.71,6.31,6.31,0,0,1-1.71-4.68V42.91h2v11.3a4.43,4.43,0,0,0,1.18,3.32,4.75,4.75,0,0,0,3.48,1.16,4.61,4.61,0,0,0,3.38-1.16,4.49,4.49,0,0,0,1.18-3.35V42.91Z"/><path d="M139.5,60.22h-2L134,48.63c-.17-.51-.35-1.16-.56-1.94a12.88,12.88,0,0,1-.32-1.41,26.27,26.27,0,0,1-.83,3.42l-3.38,11.52h-2l-4.6-17.31h2.13L127.2,53.6a38.43,38.43,0,0,1,.83,4.08,28.62,28.62,0,0,1,.95-4.24l3.1-10.53h2.13l3.25,10.62a32.34,32.34,0,0,1,1,4.15,35,35,0,0,1,.86-4.1L142,42.91h2.13Z"/><path d="M158.32,60.46a6,6,0,0,1-4.54-1.75,6.83,6.83,0,0,1-1.66-4.87,7.51,7.51,0,0,1,1.55-5A5.1,5.1,0,0,1,157.82,47a4.87,4.87,0,0,1,3.85,1.6,6.15,6.15,0,0,1,1.43,4.24v1.24h-8.94a5.16,5.16,0,0,0,1.15,3.47,4,4,0,0,0,3.09,1.18,10.38,10.38,0,0,0,4.14-.88v1.76a10.45,10.45,0,0,1-2,.64A11.11,11.11,0,0,1,158.32,60.46Zm-.53-11.81a3.21,3.21,0,0,0-2.49,1,4.76,4.76,0,0,0-1.1,2.82H161a4.34,4.34,0,0,0-.83-2.85A2.91,2.91,0,0,0,157.79,48.65Z"/><path d="M176.51,55.62a4.23,4.23,0,0,1-1.66,3.56,7.18,7.18,0,0,1-4.5,1.28,11.2,11.2,0,0,1-4.73-.8V57.72a12.11,12.11,0,0,0,2.32.71,11.68,11.68,0,0,0,2.48.26,5,5,0,0,0,3-.76,2.51,2.51,0,0,0,1-2.13,2.74,2.74,0,0,0-.36-1.47,3.4,3.4,0,0,0-1.21-1.06,17,17,0,0,0-2.57-1.1,8.24,8.24,0,0,1-3.45-2.05,4.53,4.53,0,0,1-1-3.09,3.82,3.82,0,0,1,1.51-3.18,6.22,6.22,0,0,1,4-1.19,11.75,11.75,0,0,1,4.75,1l-.63,1.75a10.7,10.7,0,0,0-4.16-.9,4,4,0,0,0-2.5.69,2.26,2.26,0,0,0-.9,1.91,2.91,2.91,0,0,0,.33,1.47,3.09,3.09,0,0,0,1.12,1,13.27,13.27,0,0,0,2.41,1.06,9.58,9.58,0,0,1,3.74,2.09A4.06,4.06,0,0,1,176.51,55.62Z"/><path d="M184.94,60.46a5.52,5.52,0,0,1-4.36-1.74,7.11,7.11,0,0,1-1.55-4.9,7.37,7.37,0,0,1,1.57-5A5.64,5.64,0,0,1,185.07,47a9.22,9.22,0,0,1,1.87.2,6.21,6.21,0,0,1,1.47.47l-.61,1.67a10.33,10.33,0,0,0-1.42-.43,6.54,6.54,0,0,0-1.36-.17c-2.64,0-4,1.68-4,5a6,6,0,0,0,1,3.67,3.34,3.34,0,0,0,2.86,1.28,8.7,8.7,0,0,0,3.33-.7v1.74A7.09,7.09,0,0,1,184.94,60.46Z"/><path d="M191.13,43.73a1.31,1.31,0,0,1,.33-1,1.16,1.16,0,0,1,.83-.31,1.13,1.13,0,0,1,.82.32,1.27,1.27,0,0,1,.34,1,1.31,1.31,0,0,1-.34,1,1.22,1.22,0,0,1-1.65,0A1.34,1.34,0,0,1,191.13,43.73Zm2.13,16.49h-2v-13h2Z"/><path d="M202.91,60.46a6,6,0,0,1-4.54-1.75,6.78,6.78,0,0,1-1.66-4.87,7.51,7.51,0,0,1,1.54-5A5.1,5.1,0,0,1,202.4,47a4.89,4.89,0,0,1,3.86,1.6,6.14,6.14,0,0,1,1.42,4.24v1.24h-8.94a5.16,5.16,0,0,0,1.16,3.47A4,4,0,0,0,203,58.74a10.31,10.31,0,0,0,4.14-.88v1.76a10.22,10.22,0,0,1-2,.64A11,11,0,0,1,202.91,60.46Zm-.53-11.81a3.21,3.21,0,0,0-2.5,1,4.69,4.69,0,0,0-1.09,2.82h6.78a4.29,4.29,0,0,0-.83-2.85A2.9,2.9,0,0,0,202.38,48.65Z"/><path d="M219.91,60.22V51.83a3.39,3.39,0,0,0-.72-2.37,3,3,0,0,0-2.26-.78,3.75,3.75,0,0,0-3,1.1,5.55,5.55,0,0,0-.94,3.63v6.81h-2v-13h1.6L213,49H213a4,4,0,0,1,1.7-1.48,5.48,5.48,0,0,1,2.42-.53,4.94,4.94,0,0,1,3.53,1.13,4.81,4.81,0,0,1,1.18,3.62v8.46Z"/><path d="M231.1,60.46a5.54,5.54,0,0,1-4.37-1.74,7.11,7.11,0,0,1-1.54-4.9,7.37,7.37,0,0,1,1.57-5A5.64,5.64,0,0,1,231.23,47a9.22,9.22,0,0,1,1.87.2,6.21,6.21,0,0,1,1.47.47L234,49.35a10.33,10.33,0,0,0-1.42-.43,6.63,6.63,0,0,0-1.36-.17c-2.64,0-4,1.68-4,5a6,6,0,0,0,1,3.67,3.34,3.34,0,0,0,2.86,1.28,8.7,8.7,0,0,0,3.33-.7v1.74A7.12,7.12,0,0,1,231.1,60.46Z"/><path d="M242.94,60.46a6,6,0,0,1-4.55-1.75,6.83,6.83,0,0,1-1.66-4.87,7.51,7.51,0,0,1,1.55-5A5.1,5.1,0,0,1,242.43,47a4.9,4.9,0,0,1,3.86,1.6,6.19,6.19,0,0,1,1.42,4.24v1.24h-8.94a5.16,5.16,0,0,0,1.15,3.47A4,4,0,0,0,243,58.74a10.38,10.38,0,0,0,4.14-.88v1.76a10.45,10.45,0,0,1-2,.64A11.07,11.07,0,0,1,242.94,60.46Zm-.54-11.81a3.21,3.21,0,0,0-2.49,1,4.69,4.69,0,0,0-1.09,2.82h6.78a4.34,4.34,0,0,0-.83-2.85A2.91,2.91,0,0,0,242.4,48.65Z"/><path d="M259.66,53v7.2h-2V42.91h4.75a7.47,7.47,0,0,1,4.7,1.22,4.42,4.42,0,0,1,1.53,3.67,4.59,4.59,0,0,1-3.48,4.64l4.69,7.78h-2.37l-4.2-7.2Zm0-1.73h2.76a4.82,4.82,0,0,0,3.13-.84,3.16,3.16,0,0,0,1-2.54,2.91,2.91,0,0,0-1-2.48,5.54,5.54,0,0,0-3.25-.75h-2.62Z"/><path d="M277.82,60.46a6,6,0,0,1-4.54-1.75,6.83,6.83,0,0,1-1.66-4.87,7.51,7.51,0,0,1,1.55-5A5.1,5.1,0,0,1,277.31,47a4.87,4.87,0,0,1,3.86,1.6,6.15,6.15,0,0,1,1.43,4.24v1.24h-8.94a5.16,5.16,0,0,0,1.15,3.47,4,4,0,0,0,3.09,1.18,10.38,10.38,0,0,0,4.14-.88v1.76a10.45,10.45,0,0,1-2,.64A11.11,11.11,0,0,1,277.82,60.46Zm-.53-11.81a3.21,3.21,0,0,0-2.49,1,4.7,4.7,0,0,0-1.1,2.82h6.79a4.34,4.34,0,0,0-.83-2.85A2.91,2.91,0,0,0,277.29,48.65Z"/><path d="M292,60.46a5.64,5.64,0,0,1-2.31-.47,4.29,4.29,0,0,1-1.76-1.44h-.14a18.45,18.45,0,0,1,.14,2.16v5.34h-2V47.25h1.6l.28,1.77h.09a4.64,4.64,0,0,1,1.76-1.54A5.44,5.44,0,0,1,292,47a4.83,4.83,0,0,1,4,1.76,7.82,7.82,0,0,1,1.4,4.95,7.74,7.74,0,0,1-1.43,5A4.8,4.8,0,0,1,292,60.46Zm-.28-11.78a3.49,3.49,0,0,0-2.88,1.1,5.69,5.69,0,0,0-.91,3.5v.44a6.46,6.46,0,0,0,.91,3.91,3.46,3.46,0,0,0,2.93,1.18,3,3,0,0,0,2.63-1.36,6.43,6.43,0,0,0,.95-3.75,6.21,6.21,0,0,0-.95-3.73A3.15,3.15,0,0,0,291.7,48.68Z"/><path d="M306.72,47a8,8,0,0,1,1.55.14L308,49a7.25,7.25,0,0,0-1.42-.17,3.42,3.42,0,0,0-2.69,1.28,4.63,4.63,0,0,0-1.12,3.18v7h-2v-13h1.62l.23,2.4h.09a5.74,5.74,0,0,1,1.74-1.95A3.92,3.92,0,0,1,306.72,47Z"/><path d="M321.9,53.72a7.15,7.15,0,0,1-1.6,5,5.65,5.65,0,0,1-4.41,1.78,5.8,5.8,0,0,1-3.09-.82,5.36,5.36,0,0,1-2.09-2.34,8.17,8.17,0,0,1-.73-3.58,7.18,7.18,0,0,1,1.58-4.94A5.62,5.62,0,0,1,316,47a5.46,5.46,0,0,1,4.32,1.81A7.13,7.13,0,0,1,321.9,53.72Zm-9.89,0a6.18,6.18,0,0,0,1,3.79,4,4,0,0,0,5.85,0,6.13,6.13,0,0,0,1-3.8,6,6,0,0,0-1-3.76,3.52,3.52,0,0,0-2.95-1.28A3.45,3.45,0,0,0,313,49.94,6.09,6.09,0,0,0,312,53.72Z"/><path d="M334.18,58.48h-.11a4.62,4.62,0,0,1-4.07,2,4.81,4.81,0,0,1-4-1.74,7.62,7.62,0,0,1-1.42-4.95,7.86,7.86,0,0,1,1.42-5A4.8,4.8,0,0,1,330,47a4.72,4.72,0,0,1,4.05,1.92h.15l-.08-.94-.05-.91V41.8h2V60.22h-1.59Zm-3.94.33a3.56,3.56,0,0,0,2.92-1.09,5.51,5.51,0,0,0,.91-3.54v-.41a6.54,6.54,0,0,0-.92-3.94,3.5,3.5,0,0,0-2.93-1.18A3,3,0,0,0,327.58,50a6.59,6.59,0,0,0-.92,3.79,6.42,6.42,0,0,0,.91,3.76A3.09,3.09,0,0,0,330.24,58.81Z"/><path d="M342.05,47.25v8.41a3.39,3.39,0,0,0,.72,2.37,3,3,0,0,0,2.26.78,3.7,3.7,0,0,0,3-1.11,5.58,5.58,0,0,0,.94-3.63V47.25h2v13h-1.63L349,58.48h-.11A3.92,3.92,0,0,1,347.23,60a5.65,5.65,0,0,1-2.45.51,4.93,4.93,0,0,1-3.54-1.13,4.77,4.77,0,0,1-1.18-3.6V47.25Z"/><path d="M360.27,60.46a5.52,5.52,0,0,1-4.36-1.74,7.11,7.11,0,0,1-1.55-4.9,7.37,7.37,0,0,1,1.57-5A5.64,5.64,0,0,1,360.4,47a9.14,9.14,0,0,1,1.87.2,6.21,6.21,0,0,1,1.47.47l-.61,1.67a10.33,10.33,0,0,0-1.42-.43,6.54,6.54,0,0,0-1.36-.17c-2.64,0-4,1.68-4,5a6,6,0,0,0,1,3.67,3.34,3.34,0,0,0,2.86,1.28,8.7,8.7,0,0,0,3.33-.7v1.74A7.09,7.09,0,0,1,360.27,60.46Z"/><path d="M366.46,43.73a1.31,1.31,0,0,1,.33-1,1.16,1.16,0,0,1,.83-.31,1.13,1.13,0,0,1,.82.32,1.27,1.27,0,0,1,.34,1,1.31,1.31,0,0,1-.34,1,1.22,1.22,0,0,1-1.65,0A1.34,1.34,0,0,1,366.46,43.73Zm2.13,16.49h-2v-13h2Z"/><path d="M378.79,47a4.83,4.83,0,0,1,4,1.75,7.67,7.67,0,0,1,1.41,4.94,7.68,7.68,0,0,1-1.43,5,4.8,4.8,0,0,1-4,1.77,5.64,5.64,0,0,1-2.31-.47,4.36,4.36,0,0,1-1.76-1.44h-.14l-.41,1.67h-1.41V41.8h2v4.48c0,1,0,1.9-.09,2.69h.09A4.69,4.69,0,0,1,378.79,47Zm-.28,1.65a3.43,3.43,0,0,0-2.9,1.15,6.53,6.53,0,0,0-.89,3.89,6.54,6.54,0,0,0,.91,3.91,3.47,3.47,0,0,0,2.93,1.18,3,3,0,0,0,2.7-1.32,6.78,6.78,0,0,0,.89-3.79,6.55,6.55,0,0,0-.89-3.78A3.14,3.14,0,0,0,378.51,48.68Z"/><path d="M389.58,60.22h-2V41.8h2Z"/><path d="M399.23,60.46a6,6,0,0,1-4.54-1.75A6.78,6.78,0,0,1,393,53.84a7.51,7.51,0,0,1,1.54-5A5.1,5.1,0,0,1,398.72,47a4.89,4.89,0,0,1,3.86,1.6A6.14,6.14,0,0,1,404,52.85v1.24h-8.94a5.16,5.16,0,0,0,1.16,3.47,4,4,0,0,0,3.08,1.18,10.31,10.31,0,0,0,4.14-.88v1.76a10.22,10.22,0,0,1-2,.64A11,11,0,0,1,399.23,60.46Zm-.53-11.81a3.21,3.21,0,0,0-2.5,1,4.69,4.69,0,0,0-1.09,2.82h6.78a4.29,4.29,0,0,0-.83-2.85A2.9,2.9,0,0,0,398.7,48.65Z"/><path d="M114.43,87.77,114,85.92h-.1A5.55,5.55,0,0,1,112,87.57a5.91,5.91,0,0,1-2.41.43,4.35,4.35,0,0,1-3-1,3.64,3.64,0,0,1-1.09-2.83q0-3.93,6.28-4.12L114,80v-.81a3.25,3.25,0,0,0-.66-2.25,2.69,2.69,0,0,0-2.1-.73,8.58,8.58,0,0,0-3.67,1l-.61-1.5a9.27,9.27,0,0,1,2.1-.82,9.54,9.54,0,0,1,2.3-.29,4.9,4.9,0,0,1,3.43,1,4.27,4.27,0,0,1,1.12,3.3v8.86ZM110,86.38a4,4,0,0,0,2.88-1,3.71,3.71,0,0,0,1-2.81V81.38l-2,.09a7.09,7.09,0,0,0-3.38.73,2.18,2.18,0,0,0-1,2,2,2,0,0,0,.64,1.62A2.63,2.63,0,0,0,110,86.38Z"/><path d="M128.81,87.77v-8.4a3.41,3.41,0,0,0-.72-2.37,3,3,0,0,0-2.26-.78,3.77,3.77,0,0,0-3,1.1A5.6,5.6,0,0,0,121.9,81v6.81h-2v-13h1.6l.32,1.78h.09a4,4,0,0,1,1.7-1.49,5.48,5.48,0,0,1,2.42-.53,4.94,4.94,0,0,1,3.53,1.13,4.82,4.82,0,0,1,1.19,3.62v8.47Z"/><path d="M143.64,86h-.1a4.64,4.64,0,0,1-4.07,2,4.81,4.81,0,0,1-4-1.74,7.62,7.62,0,0,1-1.42-5,7.75,7.75,0,0,1,1.42-5,4.81,4.81,0,0,1,4-1.78,4.69,4.69,0,0,1,4,1.92h.16l-.08-.93-.05-.92V69.35h2V87.77h-1.59Zm-3.93.33a3.57,3.57,0,0,0,2.92-1.1,5.49,5.49,0,0,0,.91-3.53v-.42a6.49,6.49,0,0,0-.92-3.93,3.47,3.47,0,0,0-2.93-1.18A3,3,0,0,0,137,77.54a6.71,6.71,0,0,0-.91,3.8,6.39,6.39,0,0,0,.91,3.75A3.1,3.1,0,0,0,139.71,86.36Z"/><path d="M171.29,79.09a9.51,9.51,0,0,1-2.1,6.53A7.38,7.38,0,0,1,163.34,88a7.48,7.48,0,0,1-5.9-2.34,9.6,9.6,0,0,1-2.08-6.6,9.49,9.49,0,0,1,2.09-6.55,7.53,7.53,0,0,1,5.92-2.32,7.38,7.38,0,0,1,5.82,2.36A9.52,9.52,0,0,1,171.29,79.09Zm-13.79,0A8.2,8.2,0,0,0,159,84.42a5.32,5.32,0,0,0,4.35,1.82,5.26,5.26,0,0,0,4.35-1.81,8.33,8.33,0,0,0,1.47-5.34,8.23,8.23,0,0,0-1.47-5.3,5.23,5.23,0,0,0-4.32-1.8A5.35,5.35,0,0,0,159,73.8,8.14,8.14,0,0,0,157.5,79.09Z"/><path d="M180.89,88a5.65,5.65,0,0,1-2.32-.46,4.5,4.5,0,0,1-1.75-1.44h-.15a16.32,16.32,0,0,1,.15,2.15v5.34h-2V74.79h1.6l.27,1.78h.1A4.48,4.48,0,0,1,178.58,75a5.3,5.3,0,0,1,2.31-.48,4.78,4.78,0,0,1,4,1.77,7.72,7.72,0,0,1,1.41,5,7.71,7.71,0,0,1-1.43,5A4.8,4.8,0,0,1,180.89,88Zm-.29-11.78a3.48,3.48,0,0,0-2.87,1.1,5.68,5.68,0,0,0-.91,3.51v.44a6.48,6.48,0,0,0,.91,3.91,3.48,3.48,0,0,0,2.92,1.18A3.07,3.07,0,0,0,183.29,85a6.51,6.51,0,0,0,1-3.76,6.25,6.25,0,0,0-1-3.72A3.16,3.16,0,0,0,180.6,76.22Z"/><path d="M195.19,88a6,6,0,0,1-4.54-1.75A6.78,6.78,0,0,1,189,81.38a7.51,7.51,0,0,1,1.54-5,5.13,5.13,0,0,1,4.15-1.85,4.89,4.89,0,0,1,3.86,1.61A6.13,6.13,0,0,1,200,80.39v1.24H191a5.14,5.14,0,0,0,1.16,3.47,4,4,0,0,0,3.08,1.19,10.48,10.48,0,0,0,4.14-.88v1.75a10.29,10.29,0,0,1-2,.65A11.07,11.07,0,0,1,195.19,88Zm-.53-11.8a3.19,3.19,0,0,0-2.49,1,4.7,4.7,0,0,0-1.1,2.82h6.78a4.34,4.34,0,0,0-.82-2.85A2.94,2.94,0,0,0,194.66,76.2Z"/><path d="M212.19,87.77v-8.4a3.41,3.41,0,0,0-.72-2.37,3,3,0,0,0-2.26-.78,3.75,3.75,0,0,0-3,1.1,5.6,5.6,0,0,0-.94,3.64v6.81h-2v-13h1.6l.32,1.78h.09a4,4,0,0,1,1.7-1.49,5.48,5.48,0,0,1,2.42-.53A4.94,4.94,0,0,1,213,75.68a4.82,4.82,0,0,1,1.19,3.62v8.47Z"/><path d="M226.8,80.57v7.2h-2V70.46h4.74a7.44,7.44,0,0,1,4.71,1.22,4.42,4.42,0,0,1,1.52,3.67A4.6,4.6,0,0,1,232.28,80l4.7,7.78H234.6l-4.19-7.2Zm0-1.73h2.76a4.71,4.71,0,0,0,3.12-.85,3.12,3.12,0,0,0,1-2.54,2.87,2.87,0,0,0-1-2.47,5.41,5.41,0,0,0-3.24-.76H226.8Z"/><path d="M245,88a6,6,0,0,1-4.54-1.75,6.78,6.78,0,0,1-1.66-4.87,7.51,7.51,0,0,1,1.54-5,5.13,5.13,0,0,1,4.15-1.85,4.89,4.89,0,0,1,3.86,1.61,6.13,6.13,0,0,1,1.42,4.23v1.24h-8.94A5.14,5.14,0,0,0,242,85.1,4,4,0,0,0,245,86.29a10.48,10.48,0,0,0,4.14-.88v1.75a10.29,10.29,0,0,1-2,.65A11.07,11.07,0,0,1,245,88Zm-.53-11.8a3.21,3.21,0,0,0-2.5,1A4.76,4.76,0,0,0,240.84,80h6.78a4.29,4.29,0,0,0-.83-2.85A2.9,2.9,0,0,0,244.43,76.2Z"/><path d="M261.45,84.23A3.25,3.25,0,0,1,260.1,87a6.31,6.31,0,0,1-3.79,1,8.27,8.27,0,0,1-4-.81V85.36a9.38,9.38,0,0,0,2,.75,8.53,8.53,0,0,0,2.07.27,4.65,4.65,0,0,0,2.37-.49,1.64,1.64,0,0,0,.83-1.5,1.62,1.62,0,0,0-.66-1.29,10.29,10.29,0,0,0-2.56-1.28,14.42,14.42,0,0,1-2.58-1.17,3.43,3.43,0,0,1-1.13-1.15,3.13,3.13,0,0,1,.91-4,6,6,0,0,1,3.54-.92,10.37,10.37,0,0,1,4.1.86l-.7,1.59a9.5,9.5,0,0,0-3.54-.8,4.12,4.12,0,0,0-2.11.44,1.35,1.35,0,0,0-.71,1.21,1.44,1.44,0,0,0,.27.88,2.53,2.53,0,0,0,.86.7,19.19,19.19,0,0,0,2.27,1,8.45,8.45,0,0,1,3.12,1.69A3,3,0,0,1,261.45,84.23Z"/><path d="M270.13,88a6,6,0,0,1-4.54-1.75,6.78,6.78,0,0,1-1.66-4.87,7.51,7.51,0,0,1,1.54-5,5.13,5.13,0,0,1,4.15-1.85,4.89,4.89,0,0,1,3.86,1.61,6.13,6.13,0,0,1,1.42,4.23v1.24H266a5.14,5.14,0,0,0,1.16,3.47,4,4,0,0,0,3.08,1.19,10.48,10.48,0,0,0,4.14-.88v1.75a10.29,10.29,0,0,1-2,.65A11.07,11.07,0,0,1,270.13,88Zm-.53-11.8a3.21,3.21,0,0,0-2.5,1A4.69,4.69,0,0,0,266,80h6.78a4.29,4.29,0,0,0-.83-2.85A2.9,2.9,0,0,0,269.6,76.2Z"/><path d="M286.23,87.77l-.39-1.85h-.1a5.46,5.46,0,0,1-1.93,1.65,5.91,5.91,0,0,1-2.41.43,4.35,4.35,0,0,1-3-1,3.64,3.64,0,0,1-1.09-2.83c0-2.62,2.09-4,6.29-4.12l2.2-.07v-.81a3.25,3.25,0,0,0-.66-2.25,2.69,2.69,0,0,0-2.1-.73,8.58,8.58,0,0,0-3.67,1l-.6-1.5a8.92,8.92,0,0,1,2.1-.82,9.4,9.4,0,0,1,2.29-.29,5,5,0,0,1,3.44,1,4.31,4.31,0,0,1,1.11,3.3v8.86Zm-4.44-1.39a4,4,0,0,0,2.88-1,3.71,3.71,0,0,0,1.05-2.81V81.38l-2,.09a7.12,7.12,0,0,0-3.38.73,2.18,2.18,0,0,0-1,2,2,2,0,0,0,.64,1.62A2.65,2.65,0,0,0,281.79,86.38Z"/><path d="M297.65,74.55a7.21,7.21,0,0,1,1.55.15l-.27,1.82a6.63,6.63,0,0,0-1.42-.18,3.45,3.45,0,0,0-2.69,1.28,4.63,4.63,0,0,0-1.12,3.18v7h-2v-13h1.63l.22,2.4h.1a5.73,5.73,0,0,1,1.74-2A3.87,3.87,0,0,1,297.65,74.55Z"/><path d="M306.82,88a5.57,5.57,0,0,1-4.37-1.73,7.14,7.14,0,0,1-1.54-4.91,7.32,7.32,0,0,1,1.57-5A5.65,5.65,0,0,1,307,74.55a9.22,9.22,0,0,1,1.87.2,6.65,6.65,0,0,1,1.47.48l-.61,1.67a8.15,8.15,0,0,0-1.42-.43,6.06,6.06,0,0,0-1.36-.18c-2.64,0-3.95,1.69-3.95,5a6.05,6.05,0,0,0,1,3.67,3.37,3.37,0,0,0,2.86,1.28,8.89,8.89,0,0,0,3.33-.7v1.74A7.12,7.12,0,0,1,306.82,88Z"/><path d="M322.05,87.77v-8.4a3.41,3.41,0,0,0-.72-2.37,2.93,2.93,0,0,0-2.26-.78,3.68,3.68,0,0,0-3,1.12,5.6,5.6,0,0,0-.94,3.64v6.79h-2V69.35h2v5.57a11.06,11.06,0,0,1-.1,1.67h.12a4.07,4.07,0,0,1,1.65-1.47,5.38,5.38,0,0,1,2.45-.54,5,5,0,0,1,3.57,1.13A4.76,4.76,0,0,1,324,79.3v8.47Z"/></svg>