<svg id="Layer_1" data-name="Layer 1" xmlns="http://www.w3.org/2000/svg" viewBox="0 0 81.54 129.13"><title>UW eScience Reproducible and Open Research</title><path d="M24.35,129.13a5,5,0,0,1-5-5V108.75l-18-30.6a4.94,4.94,0,0,1-.7-2.48L0,31.7a5,5,0,1,1,10.05-.14l.59,42.64,18,30.63a5,5,0,0,1,.7,2.55v16.73A5,5,0,0,1,24.35,129.13Z"/><path d="M56,129.13a5,5,0,0,1-5-5V107.38A5.07,5.07,0,0,1,52.27,104L71.49,82.9V46.11a5,5,0,0,1,10.05,0V84.84a5,5,0,0,1-1.31,3.38L61,109.32v14.79A5,5,0,0,1,56,129.13Z"/><path d="M57,86.87,42.82,62.69V5a5,5,0,1,0-10,0v59a5,5,0,0,0,.69,2.53L48.3,92A5,5,0,0,0,57,86.87ZM44.26,98.68l-18-30.6V14.38a5,5,0,0,0-10,0V69.45A5.05,5.05,0,0,0,16.88,72l18,30.6v21.51a5,5,0,0,0,10.05,0V101.23A5,5,0,0,0,44.26,98.68Z"/><path d="M65.24,79.67a4.93,4.93,0,0,1-2.31.57,5,5,0,0,1-4.46-2.71L50,61.19a5,5,0,0,1-.57-2.31v-.29l.05-2.66V12.58a5,5,0,0,1,10,0V56.93a4.4,4.4,0,0,1,0,.73L67.38,72.9A5,5,0,0,1,65.24,79.67Z"/></svg>